/* XPM */
static char *_1fc9f2070dc43d5e8b4c0d2f53dd398ZOmGVW0tDTU8BYZ6[] = {
/* columns rows colors chars-per-pixel */
"48 48 5 1 ",
"  c None",
". c black",
"X c #4E280C",
"o c #895B36",
"O c #D88342",
/* pixels */
"                                                ",
"                                                ",
"                                                ",
"                                                ",
"                                                ",
"                                                ",
"                      ......                    ",
"                      ......                    ",
"                    ...XXX..                    ",
"                    ...XXX..                    ",
"          ............XXXo..                    ",
"       ...ooooOOOOOOOOOooo..                    ",
"       ...ooooOOOOOOOOOooo..                    ",
"       ..oooooOOO...OOOOOO..                    ",
"       ..oooOOOOOOOOOOOOOO..                    ",
"       ..oooOOOOOOOOOOOOOO..                    ",
"       ..oOOOOOOOOOOOOOOOO....                  ",
"       ..oOOOOOOOOOOOOOOOO....                  ",
"       ..oOOOOOOOOOOOOOOOOOO..                  ",
"       ........   OOOOOOOOOO...                 ",
"       ........   OOOOOOOOOO...                 ",
"                 .OOOOOOOOOOOO...               ",
"                 .OOOOOOOOOOOOO...              ",
"                 .OOOOOOOOOOOOO...              ",
"                 .OOOOOOOOOOOOOOO...            ",
"                 .OOOOOOOOOOOOOOO...            ",
"                 .OOOOOOOOOOOOOOOO....          ",
"                 .OOOOOOOOOOOOOOOOOO...         ",
"                 .OOOOOOOOOOOOOOOOOO...         ",
"                 ...OOOOOOOOOOOOOOOOOO.         ",
"                  ..OOOOOOOOOOOOOoooOO...       ",
"                  ..OOOOOOOOOOOOOoooOO...       ",
"                  ..OOO...OOoooOOOOOOOO..       ",
"                  ..OOO...OOoooOOOOOOOO..       ",
"                  ..XXX...OOOOOOOOOOOOO..       ",
"                  ..XXX.....OOOOOoooOOO..       ",
"                  ..XXX.....OOOOOoooOOO..       ",
"                  ..XXX.......OOOOOOOOO..       ",
"                  ..XXX...XXXXXXXXXX.....       ",
"                  ..XXX...XXXXXXXXXX.....       ",
"                  ....................          ",
"                  ....................          ",
"                                                ",
"                                                ",
"                                                ",
"                                                ",
"                                                ",
"                                                "
};
