/* XPM */
static char *ac926c0add5044ee8964a8722000e572lAQKCxBwenv9Q1SA[] = {
/* columns rows colors chars-per-pixel */
"48 48 9 1 ",
"  c None",
". c black",
"X c #482D1E",
"o c #5F3A27",
"O c #744730",
"+ c #5F5F5F",
"@ c #727272",
"# c gray50",
"$ c #865337",
/* pixels */
"                     ++++++                     ",
"                     ++++++                     ",
"                +++++######+++++                ",
"             +++################+++             ",
"             +++################+++             ",
"           ++@#####################++           ",
"           ++@########.....##########+          ",
"           ++@########.....##########+          ",
"          +@@######.....XX....########++        ",
"          +@@#####.XXXXX$$$ooO..######++        ",
"          +@@#####.XXXXX$$$ooO..######++        ",
"      ++++@#####..XXXX$$$$$ooOOO..######++      ",
"     +@@########..XOOX$$$$$ooOOO..########+     ",
"     +@@########..XOOX$$$$$ooOOO..########+     ",
"     +@@######..XXXOOX$$$$$ooOOOOO.#######+     ",
"   ++@@@#####.XXXXOOOX$$$$$ooOOOOOO..######++   ",
"   ++@@@#####.XXXXOOOX$$$$$ooOOOOOO..######++   ",
"   ++@#######.XXOOOOOX$$$$$ooOOOOOO..######++   ",
"   ++@#####..XXXOOOOOX$$$$$ooOooOOOoo.#####++   ",
"   ++@#####..XXXOOOOOX$$$$$ooOooOOOoo.#####++   ",
"   ++@#####..XooOOOOOX$$$$$ooOooooOoo.#####++   ",
"   ++@#####..XooOOOOOX$$$$$ooOOOOOOoo.#####++   ",
"   ++@#####..XooOOOOOX$$$$$ooOOOOOOoo.#####++   ",
"   ++@#####..XooOOOOOX$$$$$ooOOOOOOoo.#####++   ",
"  +@@@#####..XooOOOOOX$$oo$ooOOOOOOoo.#######+  ",
"  +@@@#####..XooOOOOOX$$oo$ooOOOOOOoo.#######+  ",
"  +@@@#####..XooOOOOOX$$oo$ooOOOOOOoo.#######+  ",
"  +@@@####.XXXooOOOOOX$$$$$ooOOOOOOoo$..#####+  ",
"  +@@@####.XXXooOOOOOX$$$$$ooOOOOOOoo$..#####+  ",
"  +@@@####.XXOooOOOOOX$$$$$ooOOOOOOoo$..#####+  ",
"  +@@@####.XXOooOOOOOX$$$$$ooOOOOOOoo$..#####+  ",
"  +@@@####.XXOooOOOOOX$$$$$ooOOOOOOoo$..#####+  ",
"  +@@@####.XXOooOOOOOX$$$$$ooOOOOOOoo$..#####+  ",
"  +@@@####.XXOooOOOOOX$$$$$ooOOOOO.oo$..#####+  ",
"  +@@@####.XXOooOOOOOX$$$$$ooOOOOO.oo$..#####+  ",
"+++@@#####.XXOooOOOOOX$$$$$ooOOO.....$..#####+++",
"++@@@#####.XXOooOOOOOX$$$$$ooO.....oo$..######++",
"++@@@#####.XXOooOOOOOX$$$$$ooO.....oo$..######++",
"++@@@###...XXOooOOOOOX$$$$$ooOOOOOooo$....####++",
"++@@@###..XXXOooOOOOOX$$$$$ooOOOOOooo$$$..####++",
"++@@@###..XXXOooOOOOOX$$$$$ooOOOOOooo$$$..####++",
"++@@@###..XOOOooOOOOOX$$$$$ooOOOOOOoo$$$..####++",
"++@#####..XOOOooOOOOOX$$$$$ooOOOOOOoo$$$..####++",
"++@#####..XOOOooOOOOOX$$$$$ooOOOOOOoo$$$..####++",
"++@#####..XOOOooOOOOOX$$$$$ooOOOOOOoo$$$..####++",
"++@#####..XOOOooooOOOX$$$$$ooOOOOOOoo$$$..####++",
"++@#####..XOOOooooOOOX$$$$$ooOOOOOOoo$$$..####++",
"++@#####..XOOOooooOOOX$$$$oooOOOOOOoo$$$..####++"
};
