/* XPM */
static char *ffbcf656eee34a8291d87017627930f6mp9q2pStERKFmbde[] = {
/* columns rows colors chars-per-pixel */
"48 48 16 1 ",
"  c None",
". c #040604",
"X c #2B2B2E",
"o c #46464B",
"O c #765E56",
"+ c #5E5E64",
"@ c #954018",
"# c #BD5D22",
"$ c #BF5F22",
"% c #967970",
"& c #E28033",
"* c #E28234",
"= c #E1C304",
"- c #EFAF5D",
"; c #B29B92",
": c #CBBAB2",
/* pixels */
"                                                ",
"                ...@@@@@@..                     ",
"                ...@@@@@@..                     ",
"               .@@@#$**$$@@..                   ",
"              ..@@$..$$..$@...                  ",
"            ..@#.....@@....##@..                ",
"            ..@#.....@@....##@..                ",
"           .@@;%##&XX..XX&#%%;@@.               ",
"           .@@%o&&###XX###&oo%@@.               ",
"           .@@%o&&###XX###&oo%@@.               ",
"           ...X#oo+######+o##X...               ",
"          .@..@&@@o&&--&&o@&&@..@.              ",
"          .@##.&..@--++--@.&&.##@.              ",
"          .@##.&..@--++--@.&&.##@.              ",
"          .###.#..=&&--&&=.##.###.              ",
"          .#@@.@;;.@@&&@@.;@@.@@#.              ",
"          .@..#.%%;XX@@XX;%..#..@.              ",
"          .@..#.%%;XX@@XX;%..#..@.              ",
"          .Xoo&#..:;;..;;:.##&ooX.              ",
"           .XXo&..;::..::;.&&oXX.               ",
"           .XXo&..;::..::;.&&oXX.               ",
"           .XX#&##.;;%%;;.#&&#XX.               ",
"           .@@oX&&@......@&XXo@@.               ",
"           .##X&@@O%%;;%%O@&&X##.               ",
"           .##X&@@O%%;;%%O@&&X##.               ",
"           .##&&##%;;::;;%#&&&##.               ",
"           .##Xo@@%XXooXX%@ooX##.               ",
"           .@@#X##O;;XX;;O#XX#@@.               ",
"           .@@#X##O;;XX;;O#XX#@@.               ",
"            ..@@##@OO%%OO@#@@@..                ",
"            ..X&@@.XXOOXX.@&&X..                ",
"            ..X&@@.XXOOXX.@&&X..                ",
"            ..X&@@.@@..@@.@&&X..                ",
"            ..@&##........#&&@..                ",
"              .+oo.##..##.o++.                  ",
"              .+oo.##..##.o++.                  ",
"              .+oo.##..##.o++.                  ",
"              .o##.&&..&&.#oo.                  ",
"              .#&&...  ...&##.                  ",
"              .#&&...  ...&##.                  ",
"              .#;;.      .;##.                  ",
"            ..;:::.      .:::;..                ",
"            ..;:::.      .:::;..                ",
"           .;;:;::.      .:;;:;;.               ",
"           .%%;%;;.      .;%%;%%.               ",
"            ......        ......                ",
"            ......        ......                ",
"                                                "
};
